<svg width="34" height="34" viewBox="0 0 34 34" fill="none" xmlns="http://www.w3.org/2000/svg">
<path d="M18.566 16.3093L18.5681 16.7962C18.5681 18.8197 18.4496 20.6645 18.2711 21.8671L18.1148 22.6149C18.0278 23.011 17.9134 23.4619 17.7941 23.6922C17.3577 24.5343 16.5042 25.0553 15.5907 25.0553H15.5112C14.9157 25.0356 13.6647 24.5131 13.6647 24.4949C11.6517 23.6503 7.76819 21.1012 5.97456 19.2839L5.45334 18.7383C5.31685 18.5904 5.1635 18.4154 5.0683 18.279C4.75031 17.8579 4.59131 17.3369 4.59131 16.8159C4.59131 16.2343 4.76981 15.6936 5.1073 15.2513L5.64281 14.6734L5.76279 14.5501C7.39027 12.7856 11.6397 9.90026 13.8627 9.01725L14.1983 8.88863C14.6022 8.74386 15.1681 8.5712 15.5112 8.5553C15.9477 8.5553 16.3647 8.65678 16.7622 8.8567C17.2587 9.1369 17.6546 9.57916 17.8736 10.1002C18.0131 10.4607 18.2321 11.5436 18.2321 11.5633C18.4329 12.6552 18.5493 14.3782 18.566 16.3093ZM29.3413 16.8059C29.3413 17.9585 28.4158 18.893 27.2743 18.893L22.1879 18.4432C21.2924 18.4432 20.5664 17.7101 20.5664 16.8059C20.5664 15.9002 21.2924 15.1686 22.1879 15.1686L27.2743 14.7188C28.4158 14.7188 29.3413 15.6533 29.3413 16.8059Z" fill="#333333"/>
</svg>
