<svg width="73" height="66" viewBox="0 0 73 66" fill="none" xmlns="http://www.w3.org/2000/svg">
<path d="M35.5451 7.08023H12.8098C11.4535 7.08174 10.1533 7.62117 9.19428 8.58017C8.23527 9.53918 7.69584 10.8394 7.69434 12.1957V28.1104C7.69584 29.4667 8.23527 30.7669 9.19428 31.7259C10.1533 32.6849 11.4535 33.2244 12.8098 33.2259H35.5451C36.9014 33.2244 38.2016 32.6849 39.1606 31.7259C40.1196 30.7669 40.6591 29.4667 40.6606 28.1104V12.1957C40.6591 10.8394 40.1196 9.53918 39.1606 8.58017C38.2016 7.62117 36.9014 7.08174 35.5451 7.08023ZM31.5664 15.606C31.5664 16.0582 31.3868 16.4919 31.067 16.8117C30.7472 17.1315 30.3135 17.3111 29.8613 17.3111H18.4936C18.0414 17.3111 17.6077 17.1315 17.2879 16.8117C16.9681 16.4919 16.7885 16.0582 16.7885 15.606V11.6273C16.7885 11.1751 16.9681 10.7414 17.2879 10.4216C17.6077 10.1018 18.0414 9.92215 18.4936 9.92215C18.9459 9.92215 19.3796 10.1018 19.6993 10.4216C20.0191 10.7414 20.1988 11.1751 20.1988 11.6273V13.9008H28.1561V11.6273C28.1561 11.1751 28.3358 10.7414 28.6556 10.4216C28.9753 10.1018 29.4091 9.92215 29.8613 9.92215C30.3135 9.92215 30.7472 10.1018 31.067 10.4216C31.3868 10.7414 31.5664 11.1751 31.5664 11.6273V15.606Z" fill="#FEA000"/>
<path d="M66.3518 20.4941C65.874 19.8601 65.2559 19.3455 64.5459 18.9905C63.8359 18.6355 63.0532 18.4498 62.2594 18.4479H47.4815V5.37509C47.48 4.01885 46.9405 2.71859 45.9815 1.75959C45.0225 0.800579 43.7222 0.261148 42.366 0.259644H5.98947C4.63323 0.261148 3.33297 0.800579 2.37397 1.75959C1.41496 2.71859 0.875528 4.01885 0.874023 5.37509V51.9825C0.875528 53.3388 1.41496 54.639 2.37397 55.598C3.33297 56.557 4.63323 57.0965 5.98947 57.098H7.85377C8.25046 59.33 9.42014 61.3512 11.1578 62.8073C12.8954 64.2633 15.0901 65.0613 17.3571 65.0613C19.6242 65.0613 21.8189 64.2633 23.5565 62.8073C25.2941 61.3512 26.4638 59.33 26.8605 57.098H44.2303C44.627 59.33 45.7967 61.3512 47.5343 62.8073C49.2719 64.2633 51.4666 65.0613 53.7337 65.0613C56.0007 65.0613 58.1954 64.2633 59.933 62.8073C61.6707 61.3512 62.8404 59.33 63.237 57.098H67.3749C68.7311 57.0965 70.0314 56.557 70.9904 55.598C71.9494 54.639 72.4888 53.3388 72.4903 51.9825V30.384C72.4882 29.2775 72.1294 28.2011 71.4672 27.3147L66.3518 20.4941ZM63.6235 22.5403L68.739 29.3609C68.9598 29.6563 69.0794 30.0151 69.08 30.384V32.0891H56.0072C55.5552 32.0885 55.1218 31.9087 54.8022 31.589C54.4825 31.2694 54.3027 30.836 54.3021 30.384V21.8582H62.2594C62.524 21.8587 62.7849 21.9206 63.0216 22.0389C63.2583 22.1573 63.4643 22.3289 63.6235 22.5403ZM5.98947 3.66994H42.366C42.8181 3.67055 43.2514 3.85039 43.5711 4.17003C43.8907 4.48968 44.0706 4.92304 44.0712 5.37509V38.9097H4.28432V5.37509C4.28492 4.92304 4.46477 4.48968 4.78441 4.17003C5.10406 3.85039 5.53742 3.67055 5.98947 3.66994ZM4.28432 51.9825V42.32H44.0712V53.6877H26.8605C26.4638 51.4556 25.2941 49.4344 23.5565 47.9784C21.8189 46.5223 19.6242 45.7244 17.3571 45.7244C15.0901 45.7244 12.8954 46.5223 11.1578 47.9784C9.42014 49.4344 8.25046 51.4556 7.85377 53.6877H5.98947C5.53742 53.6871 5.10406 53.5072 4.78441 53.1876C4.46477 52.8679 4.28492 52.4346 4.28432 51.9825ZM17.3571 61.645C16.1206 61.645 14.9118 61.2784 13.8836 60.5914C12.8554 59.9044 12.0541 58.9279 11.5808 57.7854C11.1076 56.643 10.9838 55.3859 11.2251 54.1731C11.4663 52.9603 12.0618 51.8462 12.9362 50.9718C13.8105 50.0975 14.9246 49.502 16.1374 49.2607C17.3502 49.0195 18.6073 49.1433 19.7498 49.6165C20.8922 50.0897 21.8687 50.8911 22.5557 51.9193C23.2427 52.9475 23.6094 54.1563 23.6094 55.3928C23.6076 57.0505 22.9483 58.6397 21.7761 59.8118C20.604 60.9839 19.0148 61.6432 17.3571 61.645ZM53.7337 61.645C52.4971 61.645 51.2883 61.2784 50.2601 60.5914C49.232 59.9044 48.4306 58.9279 47.9574 57.7854C47.4842 56.643 47.3604 55.3859 47.6016 54.1731C47.8428 52.9603 48.4383 51.8462 49.3127 50.9718C50.1871 50.0975 51.3011 49.502 52.5139 49.2607C53.7267 49.0195 54.9839 49.1433 56.1263 49.6165C57.2687 50.0897 58.2452 50.8911 58.9322 51.9193C59.6192 52.9475 59.9859 54.1563 59.9859 55.3928C59.9841 57.0505 59.3248 58.6397 58.1527 59.8118C56.9805 60.9839 55.3913 61.6432 53.7337 61.645ZM67.3749 53.6877H63.237C62.9403 52.015 62.2069 50.4505 61.1111 49.1524C60.0154 47.8542 58.5962 46.8686 56.9971 46.2952C55.3981 45.7218 53.6759 45.581 52.005 45.887C50.334 46.193 48.7735 46.9351 47.4815 48.0379V21.8582H50.8918V30.384C50.8933 31.7402 51.4327 33.0405 52.3917 33.9995C53.3507 34.9585 54.651 35.4979 56.0072 35.4994H69.08V51.9825C69.0794 52.4346 68.8996 52.8679 68.5799 53.1876C68.2603 53.5072 67.8269 53.6871 67.3749 53.6877Z" fill="#333333"/>
<path d="M58.2805 38.9097H54.8702C54.418 38.9097 53.9842 39.0893 53.6645 39.4091C53.3447 39.7289 53.165 40.1626 53.165 40.6148C53.165 41.0671 53.3447 41.5008 53.6645 41.8205C53.9842 42.1403 54.418 42.32 54.8702 42.32H58.2805C58.7327 42.32 59.1664 42.1403 59.4862 41.8205C59.806 41.5008 59.9856 41.0671 59.9856 40.6148C59.9856 40.1626 59.806 39.7289 59.4862 39.4091C59.1664 39.0893 58.7327 38.9097 58.2805 38.9097Z" fill="#333333"/>
</svg>
