<svg width="73" height="72" viewBox="0 0 73 72" fill="none" xmlns="http://www.w3.org/2000/svg">
<path d="M49.3115 56.7059C49.5937 56.5558 49.9238 56.5237 50.2295 56.617L57.0508 58.701C57.3564 58.7945 57.6126 59.0057 57.7627 59.2879C57.9127 59.5701 57.9448 59.9003 57.8516 60.2059C57.7581 60.5117 57.5469 60.7686 57.2646 60.9188C56.9823 61.0689 56.6515 61.1001 56.3457 61.0067L49.5254 58.9236C49.2198 58.8302 48.9637 58.6188 48.8135 58.3367C48.6633 58.0544 48.6312 57.7236 48.7246 57.4178C48.8181 57.112 49.0292 56.856 49.3115 56.7059ZM49.8779 50.3123H56.6982C57.0179 50.3123 57.3248 50.4398 57.5508 50.6658C57.7768 50.8918 57.9043 51.1987 57.9043 51.5184C57.9042 51.8378 57.7767 52.144 57.5508 52.3699C57.3248 52.5959 57.0179 52.7234 56.6982 52.7234H49.8779C49.5584 52.7234 49.2523 52.5958 49.0264 52.3699C48.8005 52.144 48.673 51.8378 48.6729 51.5184C48.6729 51.1987 48.8004 50.8918 49.0264 50.6658C49.2523 50.44 49.5584 50.3124 49.8779 50.3123ZM56.3457 42.0291C56.6515 41.9357 56.9823 41.9678 57.2646 42.118C57.5467 42.2682 57.7582 42.5242 57.8516 42.8299C57.9449 43.1355 57.9127 43.4657 57.7627 43.7479C57.6126 44.0301 57.3564 44.2413 57.0508 44.3348L50.2295 46.4188C49.9238 46.5121 49.5937 46.48 49.3115 46.3299C49.0292 46.1797 48.8181 45.9238 48.7246 45.618C48.6312 45.3122 48.6633 44.9814 48.8135 44.699C48.9637 44.417 49.2198 44.2065 49.5254 44.1131L56.3457 42.0291ZM17.9805 63.8709L17.626 63.7625L7.39551 60.6365L6.74902 60.4393V65.0506L7.10352 65.159L17.334 68.2859L17.9805 68.4832V63.8709ZM4.33887 59.7049L3.98535 59.5965L1.78223 58.9217L1.69043 58.8904C1.48178 58.8079 1.29936 58.6684 1.16504 58.4871C1.01151 58.2798 0.928901 58.0283 0.928711 57.7703V45.2654C0.92868 45.0074 1.01156 44.7561 1.16504 44.5486C1.31865 44.3411 1.53525 44.1885 1.78223 44.1131L28.3721 35.9871C28.6779 35.8937 29.0087 35.9258 29.291 36.076C29.5732 36.2262 29.7845 36.4822 29.8779 36.7879C29.9713 37.0935 29.939 37.4237 29.7891 37.7059C29.639 37.9881 29.3828 38.1993 29.0771 38.2928L3.69336 46.0496L3.33887 46.157V56.8758L3.69336 56.9842L41.2061 68.4481L41.8525 68.6463V41.0858C41.8526 40.7662 41.9791 40.4592 42.2051 40.2332C42.4311 40.0073 42.738 39.8807 43.0576 39.8807C43.377 39.8807 43.6833 40.0075 43.9092 40.2332C44.1352 40.4592 44.2627 40.7662 44.2627 41.0858V70.2742C44.2626 70.4624 44.2185 70.6482 44.1338 70.8162C44.049 70.9844 43.9258 71.131 43.7744 71.243C43.623 71.355 43.4473 71.4298 43.2617 71.4617C43.0763 71.4936 42.886 71.4814 42.7061 71.4266L21.0361 64.8065L20.3906 64.6082V70.1121L20.3818 70.2527C20.3655 70.3922 20.3252 70.5281 20.2617 70.6541C20.177 70.8224 20.0537 70.9688 19.9023 71.0809C19.751 71.193 19.5753 71.2686 19.3896 71.3006C19.2043 71.3325 19.0139 71.3203 18.834 71.2654L5.19238 67.0965C4.94541 67.0211 4.72881 66.8685 4.5752 66.6609C4.42161 66.4534 4.3388 66.2014 4.33887 65.9432V59.7049Z" fill="#333333" stroke="black"/>
<path d="M53.2876 0.863403H53.2886C56.0853 0.862433 58.8447 1.50443 61.354 2.73938C63.8634 3.97445 66.056 5.76961 67.7612 7.98645C69.4664 10.2032 70.6388 12.7824 71.189 15.5245C71.7391 18.2667 71.6524 21.0989 70.9341 23.8019C70.2158 26.5049 68.8853 29.007 67.0464 31.1144C65.2076 33.2216 62.9093 34.8784 60.3286 35.9562C57.7478 37.034 54.9531 37.5038 52.1616 37.3302C49.3703 37.1565 46.6563 36.3435 44.229 34.9542L44.0347 34.8429L43.8228 34.9142L36.6187 37.3146C36.4063 37.3854 36.1783 37.3962 35.9604 37.3448C35.7427 37.2935 35.5435 37.1826 35.3853 37.0245C35.227 36.8664 35.1155 36.667 35.064 36.4493C35.0125 36.2316 35.0226 36.0034 35.0933 35.7911L37.4956 28.587L37.5669 28.3741L37.4546 28.1798C35.8611 25.4058 35.0256 22.2608 35.0317 19.0616C35.038 15.8626 35.8855 12.721 37.4897 9.95325C39.094 7.18548 41.3986 4.88865 44.1714 3.29309C46.9443 1.69754 50.0884 0.859553 53.2876 0.863403ZM46.0571 24.1827C45.483 24.1906 44.934 24.4223 44.5278 24.8282C44.1218 25.2341 43.8905 25.7825 43.8823 26.3566C43.8742 26.9307 44.0904 27.4852 44.4849 27.9025L44.4897 27.9083L44.4946 27.9132C46.8288 30.2418 49.9915 31.5499 53.2886 31.5499C56.5856 31.5499 59.7484 30.2418 62.0825 27.9132L62.0952 27.9005C62.4852 27.482 62.695 26.9287 62.6851 26.3585C62.675 25.7873 62.4435 25.242 62.0396 24.838C61.6355 24.434 61.0903 24.2026 60.519 24.1925C59.9479 24.1825 59.395 24.394 58.9771 24.7833L58.9712 24.7892L58.9644 24.795C57.4577 26.2981 55.4168 27.1427 53.2886 27.1427C51.1603 27.1427 49.1185 26.2981 47.6118 24.795L47.603 24.7863L47.4399 24.6466C47.0466 24.341 46.5594 24.1759 46.0571 24.1827Z" fill="#FEA000" stroke="black"/>
</svg>
