<svg width="72" height="72" viewBox="0 0 72 72" fill="none" xmlns="http://www.w3.org/2000/svg">
<path d="M71.8595 22.5299C71.8623 19.9357 71.2074 17.3831 69.9561 15.1106C68.7047 12.8381 66.8977 10.92 64.7039 9.53539C62.5101 8.15078 60.001 7.34491 57.4113 7.19309C54.8215 7.04126 52.2355 7.54843 49.8949 8.6672C47.5543 9.78598 45.5356 11.4798 44.0272 13.5905C42.5189 15.7012 41.5703 18.1598 41.27 20.7366C40.9696 23.3133 41.3274 25.9242 42.3099 28.3252C43.2924 30.7262 44.8675 32.8389 46.8881 34.4659H20.1366C19.0659 34.4639 18.0126 34.7374 17.0782 35.2601C16.1437 35.7828 15.3595 36.5371 14.8008 37.4505C14.2421 38.3639 13.9279 39.4057 13.8882 40.4757C13.8486 41.5456 14.0849 42.6078 14.5744 43.5601H12.1792C10.823 43.5616 9.52271 44.101 8.56371 45.06C7.6047 46.019 7.06527 47.3193 7.06376 48.6755V52.6542H5.35861C4.00237 52.6557 2.70211 53.1951 1.74311 54.1541C0.784099 55.1132 0.244668 56.4134 0.243164 57.7697V70.2741C0.243164 70.7263 0.422813 71.16 0.742591 71.4798C1.06237 71.7996 1.49608 71.9792 1.94831 71.9792H63.3337C65.5941 71.9768 67.7613 71.0778 69.3597 69.4794C70.958 67.8811 71.8571 65.7139 71.8595 63.4535V49.8123C71.856 46.991 71.0751 44.2253 69.6025 41.8188C68.13 39.4124 66.0227 37.4582 63.5122 36.1711C66.0227 34.8839 68.13 32.9298 69.6025 30.5233C71.0751 28.1169 71.856 25.3511 71.8595 22.5299ZM68.2889 20.6645C65.8036 20.2675 63.5073 19.0956 61.7276 17.3161C59.9479 15.5366 58.7758 13.2404 58.3785 10.7553C60.8638 11.1522 63.1601 12.3241 64.9398 14.1036C66.7195 15.8831 67.8916 18.1793 68.2889 20.6645ZM54.6477 10.7553C54.2504 13.2404 53.0783 15.5366 51.2986 17.3161C49.5189 19.0956 47.2226 20.2675 44.7373 20.6645C45.1342 18.1787 46.3063 15.8819 48.0863 14.1019C49.8662 12.322 52.1631 11.1499 54.6488 10.753L54.6477 10.7553ZM17.2947 40.7182C17.2956 39.9647 17.5953 39.2424 18.128 38.7096C18.6608 38.1768 19.3831 37.8771 20.1366 37.8762H36.6197V43.5601H20.1366C19.3831 43.5592 18.6608 43.2595 18.128 42.7267C17.5953 42.1939 17.2956 41.4716 17.2947 40.7182ZM25.252 68.5689H3.65346V57.7697C3.65407 57.3176 3.83391 56.8842 4.15356 56.5646C4.4732 56.245 4.90656 56.0651 5.35861 56.0645H23.5469C23.9989 56.0651 24.4323 56.245 24.7519 56.5646C25.0716 56.8842 25.2514 57.3176 25.252 57.7697V68.5689ZM23.5469 52.6542H10.4741V48.6755C10.4747 48.2235 10.6545 47.7901 10.9742 47.4705C11.2938 47.1508 11.7272 46.971 12.1792 46.9704H50.8293C51.2813 46.971 51.7147 47.1508 52.0343 47.4705C52.354 47.7901 52.5338 48.2235 52.5344 48.6755V59.4748H47.419C46.3483 59.4728 45.295 59.7463 44.3606 60.2689C43.4261 60.7916 42.6419 61.546 42.0832 62.4594C41.5245 63.3728 41.2103 64.4146 41.1706 65.4845C41.131 66.5545 41.3673 67.6167 41.8568 68.5689H28.6623V57.7697C28.6608 56.4134 28.1214 55.1132 27.1624 54.1541C26.2034 53.1951 24.9031 52.6557 23.5469 52.6542ZM68.4492 63.4535C68.4477 64.8097 67.9082 66.11 66.9492 67.069C65.9902 68.028 64.69 68.5674 63.3337 68.5689H47.419C46.6653 68.5689 45.9424 68.2695 45.4094 67.7366C44.8765 67.2036 44.5771 66.4807 44.5771 65.727C44.5771 64.9733 44.8765 64.2504 45.4094 63.7175C45.9424 63.1845 46.6653 62.8851 47.419 62.8851H68.4492V63.4535ZM68.4492 49.8123V59.4748H62.7653V52.0858C62.7653 51.6336 62.5857 51.1999 62.2659 50.8801C61.9461 50.5603 61.5124 50.3807 61.0602 50.3807C60.6079 50.3807 60.1742 50.5603 59.8545 50.8801C59.5347 51.1999 59.355 51.6336 59.355 52.0858V59.4748H55.9447V48.6755C55.9432 47.3193 55.4038 46.019 54.4448 45.06C53.4858 44.101 52.1855 43.5616 50.8293 43.5601H40.03V37.8762H56.5131C59.6776 37.8798 62.7115 39.1386 64.9492 41.3762C67.1869 43.6139 68.4456 46.6478 68.4492 49.8123ZM56.5131 34.4659C53.625 34.4611 50.8365 33.41 48.6637 31.5072C46.491 29.6045 45.0812 26.979 44.6953 24.1168C47.1876 23.8149 49.568 22.9068 51.6282 21.4721C53.6884 20.0373 55.3656 18.1196 56.5131 15.8866C57.6606 18.1196 59.3379 20.0373 61.398 21.4721C63.4582 22.9068 65.8386 23.8149 68.3309 24.1168C67.9451 26.979 66.5352 29.6045 64.3625 31.5072C62.1898 33.41 59.4012 34.4611 56.5131 34.4659Z" fill="#333333"/>
<path d="M60.3258 25.9402C59.846 26.4768 59.2583 26.9061 58.6012 27.2C57.9441 27.4939 57.2324 27.6459 56.5126 27.6459C55.7927 27.6459 55.081 27.4939 54.4239 27.2C53.7668 26.9061 53.1791 26.4768 52.6993 25.9402C52.5517 25.7674 52.3711 25.6259 52.168 25.5239C51.9649 25.4219 51.7435 25.3616 51.5168 25.3464C51.2901 25.3312 51.0626 25.3614 50.8478 25.4354C50.6329 25.5094 50.435 25.6255 50.2657 25.777C50.0963 25.9286 49.959 26.1124 49.8617 26.3178C49.7645 26.5231 49.7092 26.7458 49.6992 26.9729C49.6893 27.1999 49.7248 27.4266 49.8036 27.6397C49.8825 27.8528 50.0032 28.0479 50.1586 28.2137C50.9583 29.1078 51.9376 29.823 53.0326 30.3127C54.1276 30.8023 55.3136 31.0554 56.5131 31.0554C57.7126 31.0554 58.8986 30.8023 59.9936 30.3127C61.0886 29.823 62.068 29.1078 62.8676 28.2137C63.0185 28.0471 63.1348 27.8523 63.2101 27.6405C63.2853 27.4287 63.318 27.2041 63.3061 26.9797C63.2943 26.7552 63.2382 26.5354 63.141 26.3327C63.0439 26.13 62.9077 25.9485 62.7401 25.7987C62.5726 25.6488 62.3771 25.5336 62.1649 25.4596C61.9527 25.3855 61.7279 25.3542 61.5036 25.3674C61.2792 25.3805 61.0596 25.4379 60.8575 25.5362C60.6554 25.6345 60.4747 25.7718 60.3258 25.9402ZM20.1366 59.4748H13.316C12.8638 59.4748 12.43 59.6545 12.1103 59.9743C11.7905 60.294 11.6108 60.7277 11.6108 61.18C11.6108 61.6322 11.7905 62.0659 12.1103 62.3857C12.43 62.7055 12.8638 62.8851 13.316 62.8851H20.1366C20.5888 62.8851 21.0225 62.7055 21.3423 62.3857C21.6621 62.0659 21.8417 61.6322 21.8417 61.18C21.8417 60.7277 21.6621 60.294 21.3423 59.9743C21.0225 59.6545 20.5888 59.4748 20.1366 59.4748ZM41.7352 53.791H47.419C47.8712 53.791 48.3049 53.6113 48.6247 53.2916C48.9445 52.9718 49.1241 52.5381 49.1241 52.0858C49.1241 51.6336 48.9445 51.1999 48.6247 50.8801C48.3049 50.5603 47.8712 50.3807 47.419 50.3807H41.7352C41.2829 50.3807 40.8492 50.5603 40.5294 50.8801C40.2097 51.1999 40.03 51.6336 40.03 52.0858C40.03 52.5381 40.2097 52.9718 40.5294 53.2916C40.8492 53.6113 41.2829 53.791 41.7352 53.791Z" fill="#333333"/>
<path d="M35.4829 24.0975V5.47836C35.4814 4.12213 34.942 2.82186 33.983 1.86286C33.024 0.90385 31.7237 0.364419 30.3675 0.362915H5.35861C4.00237 0.364419 2.70211 0.90385 1.74311 1.86286C0.784099 2.82186 0.244668 4.12213 0.243164 5.47836V25.9402C0.244668 27.2964 0.784099 28.5967 1.74311 29.5557C2.70211 30.5147 4.00237 31.0541 5.35861 31.0556H38.3248C38.6616 31.0548 38.9906 30.9543 39.2704 30.7668C39.5502 30.5793 39.7683 30.3133 39.8971 30.0021C40.0259 29.6909 40.0598 29.3486 39.9945 29.0182C39.9291 28.6878 39.7674 28.3842 39.5298 28.1455L35.4829 24.0975ZM25.0372 10.8541L19.3533 21.085C19.2174 21.3296 19.0234 21.537 18.7885 21.6888C18.5535 21.8407 18.2848 21.9324 18.006 21.9559C17.7272 21.9794 17.4469 21.9339 17.1898 21.8235C16.9327 21.713 16.7068 21.541 16.5319 21.3226L11.9848 15.6388C11.8449 15.464 11.7407 15.2633 11.6783 15.0483C11.6159 14.8332 11.5965 14.6079 11.6211 14.3854C11.6458 14.1628 11.714 13.9473 11.822 13.7511C11.9299 13.5549 12.0755 13.3819 12.2503 13.2419C12.6033 12.9593 13.0542 12.8284 13.5037 12.8782C13.9532 12.928 14.3645 13.1543 14.6471 13.5073L17.6061 17.2064L22.0566 9.19673C22.1633 8.99729 22.3086 8.82107 22.4841 8.67834C22.6596 8.53562 22.8617 8.42923 23.0787 8.36539C23.2958 8.30154 23.5233 8.28151 23.7481 8.30646C23.9729 8.33141 24.1905 8.40085 24.3883 8.51072C24.586 8.62059 24.7599 8.76871 24.8998 8.94644C25.0397 9.12417 25.1429 9.32796 25.2033 9.54595C25.2637 9.76394 25.2801 9.99177 25.2516 10.2162C25.2231 10.4406 25.1502 10.657 25.0372 10.853V10.8541Z" fill="#FEA000"/>
</svg>
