<svg width="36" height="36" viewBox="0 0 36 36" fill="none" xmlns="http://www.w3.org/2000/svg">
<path d="M26.7589 17.9922C25.0352 17.9922 23.3503 18.5033 21.9171 19.4609C20.484 20.4185 19.3669 21.7796 18.7073 23.3721C18.0477 24.9645 17.8751 26.7168 18.2114 28.4073C18.5477 30.0979 19.3777 31.6507 20.5965 32.8695C21.8153 34.0884 23.3682 34.9184 25.0587 35.2546C26.7492 35.5909 28.5015 35.4183 30.094 34.7587C31.6864 34.0991 33.0475 32.9821 34.0051 31.5489C34.9627 30.1157 35.4739 28.4308 35.4739 26.7071C35.4713 24.3966 34.5523 22.1814 32.9185 20.5475C31.2847 18.9137 29.0695 17.9947 26.7589 17.9922ZM26.7589 33.1731C25.6798 33.1754 24.6172 32.9077 23.668 32.3942C22.7189 31.8807 21.9133 31.1378 21.3248 30.2333C20.7363 29.3287 20.3836 28.2912 20.2988 27.2154C20.2139 26.1396 20.3997 25.0597 20.8392 24.0741C21.2786 23.0884 21.9578 22.2285 22.8147 21.5726C23.6717 20.9167 24.6792 20.4857 25.7453 20.3189C26.8115 20.1521 27.9025 20.2548 28.9188 20.6177C29.9351 20.9806 30.8445 21.592 31.5639 22.3963L31.7843 22.1754C31.8627 22.097 31.9557 22.0349 32.058 21.9925C32.1604 21.9501 32.2701 21.9283 32.3809 21.9283C32.4917 21.9283 32.6014 21.9501 32.7037 21.9925C32.8061 22.0349 32.8991 22.097 32.9774 22.1754C33.0558 22.2537 33.1179 22.3467 33.1603 22.4491C33.2027 22.5514 33.2245 22.6611 33.2245 22.7719C33.2245 22.8827 33.2027 22.9924 33.1603 23.0948C33.1179 23.1971 33.0558 23.2901 32.9774 23.3685L32.5327 23.8127C33.0299 24.7974 33.2663 25.8932 33.2193 26.9954C33.1723 28.0975 32.8436 29.1692 32.2644 30.1081C31.6853 31.047 30.8751 31.8218 29.9112 32.3583C28.9474 32.8949 27.862 33.1754 26.7589 33.1731Z" fill="#FEA000"/>
<path d="M28.4456 12.3696H27.6023V2.53015C27.6015 1.85934 27.3347 1.21622 26.8604 0.741885C26.386 0.267551 25.7429 0.000744103 25.0721 0H5.95544C5.28463 0.000744103 4.64151 0.267551 4.16717 0.741885C3.69284 1.21622 3.42603 1.85934 3.42529 2.53015V12.3696H2.58191C1.9111 12.3704 1.26798 12.6372 0.793643 13.1115C0.319309 13.5858 0.0525019 14.2289 0.0517578 14.8998V32.8919C0.0525019 33.5627 0.319309 34.2058 0.793643 34.6802C1.26798 35.1545 1.9111 35.4213 2.58191 35.4221H17.7628C17.9865 35.4221 18.201 35.3332 18.3592 35.175C18.5173 35.0169 18.6062 34.8024 18.6062 34.5787C18.6062 34.355 18.5173 34.1405 18.3592 33.9823C18.201 33.8242 17.9865 33.7353 17.7628 33.7353H2.58191C2.35832 33.735 2.14397 33.646 1.98587 33.4879C1.82777 33.3298 1.73882 33.1155 1.73852 32.8919V14.8998C1.73882 14.6762 1.82777 14.4618 1.98587 14.3037C2.14397 14.1456 2.35832 14.0567 2.58191 14.0564H10.1723V15.462C10.1729 15.9837 10.3805 16.4839 10.7494 16.8529C11.1183 17.2218 11.6185 17.4293 12.1402 17.4299H18.8873C19.409 17.4293 19.9092 17.2218 20.2782 16.8529C20.6471 16.4839 20.8546 15.9837 20.8552 15.462V14.0564H28.4456C28.6692 14.0567 28.8836 14.1456 29.0417 14.3037C29.1998 14.4618 29.2887 14.6762 29.289 14.8998V17.1488C29.289 17.3725 29.3779 17.587 29.536 17.7451C29.6942 17.9033 29.9087 17.9922 30.1324 17.9922C30.3561 17.9922 30.5706 17.9033 30.7288 17.7451C30.8869 17.587 30.9758 17.3725 30.9758 17.1488V14.8998C30.975 14.2289 30.7082 13.5858 30.2339 13.1115C29.7596 12.6372 29.1164 12.3704 28.4456 12.3696ZM12.9836 1.68677H18.0439V3.0924C18.0439 3.16696 18.0143 3.23847 17.9616 3.29119C17.9089 3.34391 17.8374 3.37353 17.7628 3.37353H13.2648C13.1902 3.37353 13.1187 3.34391 13.066 3.29119C13.0132 3.23847 12.9836 3.16696 12.9836 3.0924V1.68677ZM5.11205 2.53015C5.11235 2.30656 5.2013 2.09222 5.3594 1.93411C5.5175 1.77601 5.73185 1.68706 5.95544 1.68677H11.2969V3.0924C11.2975 3.61414 11.505 4.11433 11.8739 4.48326C12.2428 4.85218 12.743 5.0597 13.2648 5.0603H17.7628C18.2845 5.0597 18.7847 4.85218 19.1536 4.48326C19.5226 4.11433 19.7301 3.61414 19.7307 3.0924V1.68677H25.0721C25.2957 1.68706 25.51 1.77601 25.6681 1.93411C25.8262 2.09222 25.9152 2.30656 25.9155 2.53015V12.3696H5.11205V2.53015ZM19.1684 15.462C19.1683 15.5365 19.1386 15.6079 19.0859 15.6606C19.0332 15.7133 18.9618 15.743 18.8873 15.7431H12.1402C12.0657 15.7431 11.9942 15.7135 11.9415 15.6608C11.8887 15.6081 11.8591 15.5366 11.8591 15.462V14.0564H19.1684V15.462Z" fill="#333333"/>
<path d="M20.0118 8.43384H23.3853C23.609 8.43384 23.8235 8.34498 23.9817 8.18681C24.1399 8.02865 24.2287 7.81413 24.2287 7.59045C24.2287 7.36677 24.1399 7.15226 23.9817 6.99409C23.8235 6.83593 23.609 6.74707 23.3853 6.74707H20.0118C19.7881 6.74707 19.5736 6.83593 19.4155 6.99409C19.2573 7.15226 19.1684 7.36677 19.1684 7.59045C19.1684 7.81413 19.2573 8.02865 19.4155 8.18681C19.5736 8.34498 19.7881 8.43384 20.0118 8.43384ZM23.3853 9.55835H21.1363C20.9126 9.55835 20.6981 9.6472 20.54 9.80537C20.3818 9.96353 20.2929 10.178 20.2929 10.4017C20.2929 10.6254 20.3818 10.8399 20.54 10.9981C20.6981 11.1563 20.9126 11.2451 21.1363 11.2451H23.3853C23.609 11.2451 23.8235 11.1563 23.9817 10.9981C24.1399 10.8399 24.2287 10.6254 24.2287 10.4017C24.2287 10.178 24.1399 9.96353 23.9817 9.80537C23.8235 9.6472 23.609 9.55835 23.3853 9.55835ZM11.2969 28.3939C11.2969 28.1702 11.208 27.9557 11.0498 27.7975C10.8917 27.6394 10.6772 27.5505 10.4535 27.5505H4.26868C4.045 27.5505 3.83048 27.6394 3.67231 27.7975C3.51415 27.9557 3.42529 28.1702 3.42529 28.3939C3.42529 28.6176 3.51415 28.8321 3.67231 28.9903C3.83048 29.1484 4.045 29.2373 4.26868 29.2373H10.4535C10.6772 29.2373 10.8917 29.1484 11.0498 28.9903C11.208 28.8321 11.2969 28.6176 11.2969 28.3939ZM4.26868 30.3618C4.045 30.3618 3.83048 30.4506 3.67231 30.6088C3.51415 30.767 3.42529 30.9815 3.42529 31.2052C3.42529 31.4288 3.51415 31.6434 3.67231 31.8015C3.83048 31.9597 4.045 32.0485 4.26868 32.0485H9.32897C9.55265 32.0485 9.76717 31.9597 9.92533 31.8015C10.0835 31.6434 10.1724 31.4288 10.1724 31.2052C10.1724 30.9815 10.0835 30.767 9.92533 30.6088C9.76717 30.4506 9.55265 30.3618 9.32897 30.3618H4.26868Z" fill="#333333"/>
<path d="M34.207 24.258C34.207 27.8456 30.6278 34.5222 27.1379 34.5222C23.648 34.5222 19.77 31.4982 19.77 27.9106C19.77 24.3229 21.947 19.8195 25.4369 19.8195C28.9268 19.8195 34.207 20.6704 34.207 24.258Z" fill="#FEA000"/>
<path d="M23.5293 26.7664L25.836 29.0722L30.4474 24.4607" stroke="white" stroke-width="1.23652" stroke-linecap="round" stroke-linejoin="round"/>
</svg>
