<svg width="103" height="131" viewBox="0 0 103 131" fill="none" xmlns="http://www.w3.org/2000/svg">
<circle cx="51.2138" cy="79.8878" r="50.8915" fill="#EEEEEE"/>
<path d="M51.8369 0.938477C79.3141 1.27115 101.485 23.649 101.485 51.2051V68.5898C96.3787 45.7688 76.1302 28.6649 51.8369 28.3779V0.938477Z" fill="#F4F4F4" stroke="#DBDBDB" stroke-width="1.24297" stroke-linejoin="round"/>
<path d="M50.5928 28.3779C26.2982 28.6654 6.04915 45.7715 0.944336 68.5947V51.2051C0.944336 23.6493 23.116 1.27162 50.5928 0.938477V28.3779Z" fill="#F4F4F4" stroke="#DBDBDB" stroke-width="1.24297" stroke-linejoin="round"/>
<path d="M0.944336 62.4968C6.04881 85.3205 26.2978 102.426 50.5928 102.714V130.153C23.116 129.82 0.944336 107.443 0.944336 79.8875V62.4968Z" fill="#F4F4F4" stroke="#DBDBDB" stroke-width="1.24297" stroke-linejoin="round"/>
<path d="M101.485 79.8875C101.485 107.443 79.3141 129.82 51.8369 130.153V102.714C76.1305 102.427 96.379 85.3233 101.485 62.5017V79.8875Z" fill="#F4F4F4" stroke="#DBDBDB" stroke-width="1.24297" stroke-linejoin="round"/>
</svg>
