<svg width="122" height="138" viewBox="0 0 122 138" fill="none" xmlns="http://www.w3.org/2000/svg">
<path d="M0.777341 77.7005L30.6071 26.0338L90.2668 26.0337L120.097 77.7005L90.2668 129.367L30.6072 129.367L0.777341 77.7005Z" fill="#EEEEEE"/>
<path d="M32.7383 1.32959L91.2959 1.32959L89.748 25.4839L31.1914 25.4839L32.7383 1.32959Z" fill="#F4F4F4" stroke="#DBDBDB" stroke-width="1.10013" stroke-linejoin="round"/>
<path d="M92.3184 2.62793L121.156 52.5771L119.666 75.8506L90.8271 25.9033L92.3184 2.62793Z" fill="#F4F4F4" stroke="#DBDBDB" stroke-width="1.10013" stroke-linejoin="round"/>
<path d="M2.93457 52.6104L31.5254 3.09082L30.0664 25.8701L1.47559 75.3887L2.93457 52.6104Z" fill="#F4F4F4" stroke="#DBDBDB" stroke-width="1.10013" stroke-linejoin="round"/>
<path d="M92.4258 104.277L121.017 54.7578L119.558 77.5371L90.9668 127.056L92.4258 104.277Z" fill="#F4F4F4" stroke="#DBDBDB" stroke-width="1.10013" stroke-linejoin="round"/>
<path d="M2.82715 54.2949L31.665 104.244L30.1748 127.518L1.33594 77.5703L2.82715 54.2949Z" fill="#F4F4F4" stroke="#DBDBDB" stroke-width="1.10013" stroke-linejoin="round"/>
<path d="M32.7383 104.663L91.2959 104.663L89.748 128.817L31.1914 128.817L32.7383 104.663Z" fill="#F4F4F4" stroke="#DBDBDB" stroke-width="1.10013" stroke-linejoin="round"/>
</svg>
